<svg xmlns="http://www.w3.org/2000/svg" width="63.684" height="76.594" viewBox="0 0 63.684 76.594">
<g id="Group_1646" data-name="Group 1646" transform="translate(-865.198 -1374.925)">
<g id="Group_1639" data-name="Group 1639">
<g id="Group_1638" data-name="Group 1638">
<g id="Group_1637" data-name="Group 1637">
<path id="Path_304" data-name="Path 304" d="M922.285,1404.31c-1.58,5.624-2.688,10.142-2.688,10.142a36.175,36.175,0,0,0-2.1,9.121c-2.44,2.607-4.235,2.186-4.235,2.186.041-1.22,2.062-5.765,2.062-5.765,3.827-5.515,2.65-6.521,2.65-6.521-3.229-3.938-5.47,1.262-5.47,1.262-.968,2.986-3.306,4.627-7.4,9.424a21.574,21.574,0,0,0-5.05,10.349c-1.978,3.408-2.121,17.011-2.121,17.011h13.661l-.939-5.565s-.933-3.2,4.378-6.649c4.29-2.791,2.765-2.051,6.593-4.961,3.447-2.62,3.826-4.838,3.826-4.838l1.053-11.486c.674-4.881.859-7.4.859-7.4.547-10.429,1.519-12.875,1.519-12.875C928.379,1397.74,924.541,1396.28,922.285,1404.31Z" class="" fill="#000000"></path>
</g>
</g>
</g>
<g id="Group_1642" data-name="Group 1642">
<g id="Group_1641" data-name="Group 1641">
<g id="Group_1640" data-name="Group 1640">
<path id="Path_305" data-name="Path 305" d="M888.977,1424.16c-4.1-4.8-6.437-6.438-7.4-9.424,0,0-2.242-5.2-5.469-1.262,0,0-1.178,1.006,2.648,6.521,0,0,2.021,4.545,2.063,5.765,0,0-1.8.422-4.236-2.186a36.14,36.14,0,0,0-2.1-9.121s-1.108-4.518-2.688-10.142c-2.254-8.027-6.092-6.57-6.6-6.57,0,0,.972,2.446,1.52,12.875,0,0,.185,2.522.859,7.4l1.052,11.486s.381,2.218,3.827,4.838c3.827,2.91,2.3,2.17,6.593,4.961,5.311,3.453,4.377,6.649,4.377,6.649l-.939,5.565h13.662s-.143-13.6-2.121-17.011A21.607,21.607,0,0,0,888.977,1424.16Z"></path>
</g>
</g>
</g>
<g id="Group_1645" data-name="Group 1645">
<g id="Group_1644" data-name="Group 1644">
<g id="Group_1643" data-name="Group 1643">
<path id="Path_306" data-name="Path 306" d="M877.189,1386.8a30.062,30.062,0,0,1,5.224,3.743c.151.142,3.713,3.454,7.4,3.454a5.463,5.463,0,0,0,2.01-.369,13.6,13.6,0,0,1,3.694,3.31v4.992a5.52,5.52,0,0,0-4.694,4.183s-6.738.37-6.1,7.047c0,0,8.8,9.584,25.51.149,0,0,1.619-5.543-5.891-5.543a7.542,7.542,0,0,0-6.912-5.85v-7.167a9.5,9.5,0,0,1,2.668-6.43,6.63,6.63,0,0,0,2.635.558c4.955,0,9.5-5.115,9.689-5.331a39.336,39.336,0,0,1,6.313-5.5.681.681,0,0,0-.027-1.145,16.081,16.081,0,0,0-7.782-1.972,15.782,15.782,0,0,0-6.751,1.521c-3.378,1.584-5.461,3.594-6.192,5.972a6.374,6.374,0,0,0,.453,4.856,11.381,11.381,0,0,0-2.865,6.861,20.03,20.03,0,0,0-2.01-1.62.612.612,0,0,0,.134-.181,5.1,5.1,0,0,0-.005-3.893c-.756-1.817-2.537-3.238-5.293-4.223a12.432,12.432,0,0,0-4.2-.736,12.649,12.649,0,0,0-7.09,2.174.684.684,0,0,0-.272.594A.662.662,0,0,0,877.189,1386.8Z" class="" fill="#24753c"></path>
</g>
</g>
</g>
</g>
</svg>